<svg width="41" height="38" viewBox="0 0 41 38" fill="none" xmlns="http://www.w3.org/2000/svg">
<path opacity="0.5" d="M40.0652 0.256714L30.2601 34.9917C30.2102 35.1494 30.0108 35.1967 29.8945 35.0863L23.3301 28.8583L28.2492 11.4514C28.2991 11.2937 28.1495 11.1518 27.9833 11.1991L9.63617 15.8662L3.10498 9.66969C2.98865 9.55932 3.03851 9.37011 3.20469 9.32281L39.7993 0.00444022C39.9655 -0.027094 40.115 0.11481 40.0652 0.256714Z" fill="#00B37E"/>
<path opacity="0.5" d="M23.3297 28.858L20.8037 37.8452C20.7538 38.0029 20.5544 38.0502 20.4381 37.9398L0.0634003 18.6251C-0.0529313 18.5147 -0.00307518 18.3255 0.163113 18.2782L9.63583 15.8658L23.3297 28.858Z" fill="#00B37E"/>
<path d="M28.2484 11.4511L23.3292 28.858L9.63533 15.8659L27.9825 11.1988C28.1487 11.1515 28.2982 11.2934 28.2484 11.4511Z" fill="#00B37E"/>
<path fill-rule="evenodd" clip-rule="evenodd" d="M20 5C20.5523 5 21 5.44772 21 6L21 32C21 32.5523 20.5523 33 20 33C19.4477 33 19 32.5523 19 32L19 6C19 5.44772 19.4477 5 20 5Z" fill="white"/>
<path fill-rule="evenodd" clip-rule="evenodd" d="M13.2574 9.75736C14.3826 8.63214 15.9087 8 17.5 8L22 8C22.7879 8 23.5681 8.15519 24.2961 8.45672C25.0241 8.75825 25.6855 9.20021 26.2426 9.75736C26.7998 10.3145 27.2417 10.9759 27.5433 11.7039C27.8448 12.4319 28 13.2121 28 14C28 14.5523 27.5523 15 27 15C26.4477 15 26 14.5523 26 14C26 13.4747 25.8965 12.9546 25.6955 12.4693C25.4945 11.984 25.1999 11.543 24.8284 11.1716C24.457 10.8001 24.016 10.5055 23.5307 10.3045C23.0454 10.1035 22.5253 10 22 10L17.5 10C16.4391 10 15.4217 10.4214 14.6716 11.1716C13.9214 11.9217 13.5 12.9391 13.5 14C13.5 15.0609 13.9214 16.0783 14.6716 16.8284C15.4217 17.5786 16.4391 18 17.5 18H23C24.5913 18 26.1174 18.6321 27.2426 19.7574C28.3679 20.8826 29 22.4087 29 24C29 25.5913 28.3679 27.1174 27.2426 28.2426C26.1174 29.3679 24.5913 30 23 30H17C15.4087 30 13.8826 29.3679 12.7574 28.2426C11.6321 27.1174 11 25.5913 11 24C11 23.4477 11.4477 23 12 23C12.5523 23 13 23.4477 13 24C13 25.0609 13.4214 26.0783 14.1716 26.8284C14.9217 27.5786 15.9391 28 17 28H23C24.0609 28 25.0783 27.5786 25.8284 26.8284C26.5786 26.0783 27 25.0609 27 24C27 22.9391 26.5786 21.9217 25.8284 21.1716C25.0783 20.4214 24.0609 20 23 20H17.5C15.9087 20 14.3826 19.3679 13.2574 18.2426C12.1321 17.1174 11.5 15.5913 11.5 14C11.5 12.4087 12.1321 10.8826 13.2574 9.75736Z" fill="white"/>
</svg>
